<?xml version="1.0" standalone="no"?>
<!DOCTYPE svg PUBLIC "-//W3C//DTD SVG 1.1//EN" "http://www.w3.org/Graphics/SVG/1.1/DTD/svg11.dtd" >
<svg xmlns="http://www.w3.org/2000/svg">
<metadata>Generated by IcoMoon</metadata>
<defs>
<font id="icomoon" horiz-adv-x="1024">
<font-face units-per-em="1024" ascent="960" descent="-64" />
<missing-glyph horiz-adv-x="1024" />
<glyph unicode="&#x20;" horiz-adv-x="512" d="" />
<glyph unicode="&#xe600;" glyph-name="maid" d="M758.893 715.559c0-134.997-109.444-321.319-244.441-321.319-135.013 0-244.426 186.321-244.426 321.319s109.428 244.441 244.426 244.441c134.997 0 244.441-109.444 244.441-244.441zM699.252 460.986c-49.338-63.364-113.99-108.141-184.785-108.141-70.842 0-135.463 44.777-184.801 108.141-157.68-64.419-267.605-198.563-267.605-289.963 0-124.106 202.55-224.721 452.406-224.721 249.84 0 452.391 100.6 452.391 224.721 0 91.4-109.925 225.559-267.605 289.963z" />
<glyph unicode="&#xe601;" glyph-name="author" d="M477.232 957.857c166.46 19.17 282.6-91.636 267.264-281.052-4.263-52.796-26.124-115.926-52.343-162.602-24.909-44.223-80.92-87.088-66.155-143.265 9.407-35.554 87.54-56.511 115.736-68.894 72.061-31.601 173.104-78.872 198.418-154.291 6.525-19.432 11.431-66.751 0-96.447-40.388-104.662-290.721-110.211-429.866-110.211-76.967 0-170.532 1.191-253.5 16.527-96.661 17.884-213.802 56.653-179.105 184.606 15.646 57.773 85.325 99.947 148.813 135.025 18.432 10.216 57.439 32.292 93.684 46.866 30.577 12.264 73.299 23.385 77.157 63.345 3.263 33.816-18.17 51.867-38.579 79.896-46.675 64.179-90.612 151.623-82.682 270.050 7.763 116.236 80.086 206.515 201.156 220.446z" />
<glyph unicode="&#xe602;" glyph-name="tick" d="M894.62 870.957l-542.141-575.087-212.324 212.324-140.154-140.154 356.619-356.619 70.077 74.218 612.174 649.305z" />
<glyph unicode="&#xe603;" glyph-name="close" horiz-adv-x="1023" d="M142.386 959.826c-7.526 0.819-14.489-1.382-19.681-6.492l-116.469-116.54c-10.23-10.189-7.475-29.122 5.304-41.881l346.856-346.897-346.856-346.856c-12.779-12.759-15.534-31.549-5.304-41.84l116.469-116.499c10.281-10.322 29.194-8.847 41.912 3.871l346.856 346.948 346.907-346.948c12.759-12.718 31.621-14.192 41.902-3.871l116.51 116.499c10.189 10.291 7.485 29.081-5.284 41.84l-346.856 346.856 346.856 346.897c12.769 12.759 15.472 31.692 5.284 41.881l-116.51 116.551c-10.281 10.189-29.143 7.475-41.902-5.253l-346.907-346.938-346.856 346.928c-6.379 6.41-14.684 10.926-22.231 11.745z" />
<glyph unicode="&#xe604;" glyph-name="calender" d="M62.27 631.988v-614.040c0-45.845 36.712-82.972 82.003-82.972h738.013c45.291 0 82.003 37.141 82.003 82.972v614.040h-902.019zM287.772-3.529h-164.006v164.006h164.006v-164.006zM287.772 201.479h-164.006v164.006h164.006v-164.006zM287.772 406.487h-164.006v164.006h164.006v-164.006zM492.779-3.529h-164.006v164.006h164.006v-164.006zM492.779 201.479h-164.006v164.006h164.006v-164.006zM492.779 406.487h-164.006v164.006h164.006v-164.006zM697.787-3.529h-164.006v164.006h164.006v-164.006zM697.787 201.479h-164.006v164.006h164.006v-164.006zM697.787 406.487h-164.006v164.006h164.006v-164.006zM902.794-3.529h-164.006v164.006h164.020v-164.006zM902.794 201.479h-164.006v164.006h164.020v-164.006zM902.794 406.487h-164.006v164.006h164.020v-164.006zM882.301 836.982h-133.272v92.257c0 16.979-13.755 30.762-30.748 30.762-16.979 0-30.748-13.769-30.748-30.748v-92.271h-348.506v92.257c0 16.979-13.782 30.762-30.762 30.762s-30.748-13.769-30.748-30.748v-92.271h-133.245c-45.291 0-82.003-37.113-82.003-82.93v-81.048h902.019v81.048c0.014 45.817-36.726 82.93-81.989 82.93zM308.265 693.497c-33.958 0-61.495 27.537-61.495 61.495 0 22.749 12.385 42.565 30.748 53.206v-53.206c0-16.979 13.769-30.748 30.748-30.748s30.762 13.769 30.762 30.748v53.22c18.363-10.641 30.748-30.471 30.748-53.22 0-33.972-27.537-61.495-61.509-61.495zM718.281 693.497c-33.958 0-61.482 27.537-61.482 61.495 0 22.749 12.385 42.565 30.748 53.206v-53.206c0-16.979 13.769-30.748 30.748-30.748 16.993 0 30.748 13.769 30.748 30.748v53.22c18.377-10.641 30.762-30.471 30.762-53.22-0.014-33.972-27.551-61.495-61.523-61.495z" />
<glyph unicode="&#xe605;" glyph-name="every-loader" d="M482.69 209.576c-34.917 78.428-18.701 167.919 41.313 227.966 60.030 60.013 149.571 76.229 228.050 41.313 0.739-0.319 1.511-0.453 2.283-0.739l-38.459-30.166c-16.031-12.59-18.852-35.773-6.245-51.821 7.286-9.3 18.113-14.151 29.058-14.151 7.991 0 15.998 2.568 22.763 7.89l97.448 76.447c11.046 8.662 16.216 22.83 13.362 36.595l-25.365 121.655c-4.146 19.943-23.67 32.768-43.696 28.605-19.943-4.146-32.768-23.703-28.605-43.679l11.7-56.202c-0.336 0.168-0.604 0.386-0.923 0.52-109.753 48.833-235.1 25.986-319.404-58.25-84.22-84.287-107.067-209.635-58.234-319.337 6.799-15.276 21.773-24.341 37.502-24.341 5.556 0 11.23 1.142 16.636 3.559 20.732 9.199 30.032 33.423 20.816 54.138zM930.38 408.803c-9.182 20.698-33.439 30.015-54.121 20.833-20.715-9.199-30.032-33.423-20.833-54.154 34.883-78.495 18.65-168.003-41.346-227.983-58.804-58.804-145.844-75.474-223.148-43.293l38.375 30.099c16.048 12.59 18.852 35.79 6.262 51.838s-35.823 18.852-51.838 6.262l-97.498-76.481c-11.046-8.645-16.233-22.813-13.362-36.562l25.348-121.671c3.626-17.425 18.969-29.394 36.109-29.394 2.468 0 5.019 0.269 7.571 0.772 19.943 4.163 32.768 23.72 28.622 43.696l-11.667 55.951c36.478-15.293 74.534-22.847 112.17-22.847 73.997 0 146.214 28.84 201.057 83.649 84.203 84.186 107.084 209.517 58.301 319.287zM131.173 705.595l661.756-0.084v141.178c0 23.518-19.238 42.706-42.739 42.706h-96.055v31.626c0.017 21.42-17.559 38.979-38.962 38.979h-28.773c-21.437 0-38.962-17.576-38.962-38.979v-31.626h-234.832v31.626c0 21.42-17.526 38.979-38.979 38.979h-28.756c-21.403 0-38.979-17.576-38.979-38.979v-31.626h-96.038c-23.468 0-42.706-19.187-42.706-42.706v-640.336c0-23.518 19.221-42.756 42.706-42.756h200.536v72.368h-179.217v469.63z" />
<glyph unicode="&#xe606;" glyph-name="warning" d="M149.966 810.034c-199.934-199.934-199.934-524.104 0-724.069s524.135-199.964 724.069 0c199.964 199.964 199.964 524.135 0 724.069s-524.135 199.934-724.069 0zM801.621 158.379c-160.002-159.941-419.332-159.941-579.273 0-159.971 160.002-159.971 419.332 0 579.273s419.302 159.941 579.273 0c159.941-159.971 159.941-419.332 0-579.273zM466.533 748.813c12.196 13.138 28.436 19.738 48.448 19.738 24.239 0 40.479-8.455 48.661-25.212 8.242-16.818 12.256-40.996 12.256-72.626 0-18.643-0.943-37.529-2.98-56.781l-18.156-208.693c-1.977-24.847-6.235-43.886-12.682-57.176-6.569-13.29-17.214-19.951-32.146-19.951-15.328 0-25.881 6.448-31.842 19.343-5.931 12.834-10.158 32.359-12.682 58.666l-13.595 202.793c-2.524 39.537-3.802 67.881-3.802 85.095 0.061 23.387 6.174 41.696 18.521 54.804zM556.95 144.419c-12.773-11.314-27.493-16.97-44.524-16.97-17.244 0-32.238 5.596-45.102 16.757-12.834 11.131-19.312 26.733-19.312 46.745 0 17.487 6.143 32.39 18.43 44.707 12.287 12.256 27.372 18.369 45.193 18.369s32.846-6.113 45.498-18.369c12.591-12.287 18.795-27.25 18.795-44.707 0.030-19.768-6.295-35.248-18.978-46.532z" />
<glyph unicode="&#xe607;" glyph-name="star" d="M1000.985 595.758h-0.353l-347.287-2.854-111.129 329.023c-4.281 12.724-16.233 21.286-29.612 21.286h-0.319c-13.547-0.134-25.449-8.964-29.511-21.857l-104.599-331.172-347.254-4.012c-13.53-0.168-25.415-8.998-29.495-21.907-4.029-12.892 0.671-26.943 11.667-34.816l282.624-201.812-103.491-331.474c-4.029-12.943 0.705-26.96 11.717-34.816 5.439-3.861 11.784-5.825 18.13-5.825 6.547 0 13.077 2.048 18.583 6.127l279.283 206.445 283.312-200.872c5.422-3.844 11.751-5.758 18.079-5.758 6.564 0 13.111 2.031 18.617 6.144 10.878 8.041 15.343 22.175 11.046 35.034l-110.055 329.392 278.092 206.982c7.94 5.674 13.127 14.974 13.127 25.466 0.034 17.257-13.916 31.257-31.173 31.274z" />
<glyph unicode="&#xe608;" glyph-name="comments" horiz-adv-x="1363" d="M681.338 960c-376.252 0-681.338-214.035-681.338-478.007 0-126.209 70.225-240.728 184.162-326.136l-122.805-219.857 267.913 137.271c102.875-43.667 223.037-69.33 352.022-69.33 376.252 0 681.383 214.035 681.383 478.007 0.045 264.017-305.086 478.052-681.338 478.052z" />
<glyph unicode="&#xe609;" glyph-name="tel" d="M1013.752 99.52c-57.999-139.091-194.048-163.474-238.496-163.474-13.059 0-216.341-10.77-508.581 266.428-235.178 223.086-263.924 462.981-266.428 508.551-2.428 44.402 10.279 155.776 163.489 238.527 18.99 10.248 56.617 14.796 66.342 5.070 4.317-4.302 132.899-215.911 136.279-222.917s5.086-13.904 5.086-20.665c0-9.664-6.898-21.74-20.68-36.244-13.766-14.504-28.746-27.794-44.94-39.87-16.194-12.092-31.174-24.89-44.955-38.426-13.766-13.52-20.649-24.644-20.649-33.34 0.937-22.57 19.42-103.4 160.309-227.204 140.904-123.834 208.782-158.711 215.297-161.108 6.53-2.412 11.953-3.611 16.317-3.611 8.696 0 19.82 6.883 33.355 20.649 13.52 13.782 59.029 76.129 73.502 89.926 14.504 13.751 26.595 20.634 36.259 20.634 6.745 0 13.643-1.675 20.649-5.055s218.892-127.368 222.933-131.501c10.985-11.293 3.226-46.461-5.086-66.373z" />
<glyph unicode="&#xe60a;" glyph-name="tick2" horiz-adv-x="1322" d="M417.291-64c-31.57 0-61.825 12.521-84.149 34.867l-298.297 298.297c-46.475 46.475-46.475 121.801 0 168.298 46.475 46.452 121.823 46.452 168.298-0.022l214.148-214.148 701.864 701.864c46.475 46.475 121.801 46.475 168.298 0 46.475-46.475 46.475-121.801 0-168.275l-785.99-786.013c-22.346-22.324-52.624-34.867-84.171-34.867z" />
<glyph unicode="&#xe60b;" glyph-name="refresh" horiz-adv-x="1270" d="M634.837 58.92c-207.963 0-377.33 163.23-388.113 368.649h121.869l-184.297 204.756-184.297-204.756h123.86c10.838-273.266 235.112-491.569 510.977-491.569 130.938 0 249.987 49.544 340.559 130.44l-86.923 86.923c-68.068-58.668-156.649-94.443-253.636-94.443zM1145.814 468.487c-10.893 273.155-235.112 491.513-511.032 491.513-130.938 0-249.987-49.544-340.559-130.44l86.923-86.923c68.123 58.723 156.649 94.498 253.691 94.498 207.963 0 377.33-163.34 388.168-368.649h-121.869l184.297-204.811 184.297 204.811h-123.915z" />
<glyph unicode="&#xe60c;" glyph-name="edit" d="M86.558 246.192l536.456 536.456 207.651-207.651-536.496-536.496zM692.205 851.892l207.68-207.68-34.599-34.599-207.68 207.68 34.599 34.599zM726.859 886.493c0 0 34.615 34.615 51.903 51.943 17.288 17.308 294.209-121.153 242.286-173.076-51.903-51.903-86.538-86.498-86.538-86.498l-207.651 207.631zM51.943 176.961l173.056-173.096-224.999-51.903z" />
<glyph unicode="&#xe60d;" glyph-name="refund" d="M304.143-10.11c-122.269 56.61-211.708 155.098-259.255 271.712-105.289 260.386 20.373 555.864 279.628 661.152 260.386 105.289 557.010-20.373 662.283-279.613 101.88-252.485-13.587-541.161-261.502-653.236-40.761-18.111-67.936 43.023-28.32 62.265 215.101 97.356 314.72 347.564 226.426 566.058-90.555 224.149-347.549 332.846-572.844 242.26-225.295-91.701-333.977-348.695-242.275-573.99 40.761-101.88 120.007-187.927 227.557-236.605l10.194 54.348c1.131 5.655 9.048 7.932 12.456 2.262l83.769-144.904-167.554-20.373c-5.655-1.131-10.194 6.771-5.655 11.31l35.091 37.353zM673.211 615.951c0-15.849-16.98-47.547-33.96-47.547-2.262 0-20.388 6.786-52.086 19.242-32.829 12.456-58.857 19.242-78.114 19.242-43.023 0-64.527-16.98-64.527-50.94 0-22.635 19.242-43.023 57.741-60.003 66.805-29.436 101.896-45.285 106.42-47.547 38.484-24.912 57.726-58.888 57.726-101.896 0-33.96-9.063-62.265-28.305-84.9-19.257-22.65-45.285-35.106-79.245-38.515 0-28.305 9.048-70.182-33.991-70.182-16.98 0-28.305 3.393-33.96 9.048-10.194 11.325-5.655 44.154-5.655 58.888-28.305 2.247-124.531 22.635-124.531 57.726 0 15.849 13.572 47.547 31.698 47.547 2.262 0 20.373-5.655 52.071-18.126 32.829-12.441 57.741-18.111 78.114-18.111 41.877 0 62.25 16.98 62.25 50.94 0 24.912-19.242 45.285-56.58 62.265-35.106 14.718-70.197 30.567-106.42 45.285-38.469 23.827-56.58 56.641-56.58 98.518 0 74.721 47.547 117.745 118.876 127.939 0 10.194-1.131 21.504-1.131 31.698 0 26.043 12.441 38.484 36.222 38.484 28.32 0 39.646-10.179 39.646-38.484 0-10.194-1.146-20.373-1.146-31.698 27.159-2.262 115.467-23.781 115.467-58.872z" />
<glyph unicode="&#xe60e;" glyph-name="email" d="M189.628 42.189h650.018c104.55 0 189.611 85.060 189.611 189.628v436.156c0 0.068-0.034 0.137-0.034 0.205 0 0.222-0.017 0.427-0.017 0.649-0.444 104.175-85.299 188.774-189.559 188.774h-650.018c-104.26 0-189.116-84.599-189.577-188.774 0-0.222-0.034-0.427-0.034-0.649 0-0.068-0.017-0.137-0.017-0.205v-436.156c0-104.567 85.060-189.628 189.628-189.628zM189.628 756.463h650.018c40.363 0 74.428-27.204 84.992-64.239l-410.010-281.105-410.044 281.105c10.598 37.035 44.663 64.239 85.043 64.239zM928.137 231.817c0-48.794-39.714-88.508-88.491-88.508h-650.018c-48.777 0-88.491 39.697-88.491 88.508v340.173l384.905-263.885c8.619-5.922 18.603-8.875 28.604-8.875 9.967 0 19.968 2.953 28.587 8.875l384.905 263.885v-340.173z" />
<glyph unicode="&#xe60f;" glyph-name="print" d="M933.786 494.051h-77.195v396.229c0 27.531-18.695 69.72-50.395 69.72h-577.302c-31.7 0-65.814-42.189-65.814-69.72v-396.229h-61.762c-31.7 0-57.432-43.681-57.432-71.124v-302.943c0-27.458 25.732-70.203 57.432-70.203h58.441l-57.256-119.194h830.113l-50.059 119.194h51.229c31.7 0 52.824 42.745 52.824 70.203v302.943c0 27.443-21.124 71.124-52.824 71.124zM165.113-26.083l72.543 173.392h566.974l65.346-173.392h-704.863zM260.608 873.296h509.294v-379.26h-509.294v379.26z" />
<glyph unicode="&#xe610;" glyph-name="save" d="M732.651 698.736l-300.881-461.354-150.44 150.44-40.118-40.118 200.592-200.592 340.999 521.539z" />
<glyph unicode="&#xe611;" glyph-name="home" horiz-adv-x="1164" d="M579.508 959.86c-4.912-0.57-9.474-2.793-12.955-6.308l-560.245-560.245c-8.473-8.543-8.392-22.347 0.163-30.809 4.062-4.016 9.533-6.274 15.247-6.297h118.348v-398.471c0.035-11.965 9.73-21.661 21.707-21.707h840.39c11.965 0.047 21.661 9.742 21.707 21.707v398.447h118.348c12.035 0.047 21.754 9.847 21.707 21.87-0.023 5.715-2.281 11.197-6.297 15.259l-136.564 136.552v186.985c-0.035 11.965-9.742 21.661-21.707 21.707h-92.427c-11.965-0.047-21.661-9.742-21.707-21.707v-51.12l-287.863 287.828c-4.667 4.726-11.267 7.042-17.855 6.308z" />
<glyph unicode="&#xe612;" glyph-name="services" horiz-adv-x="1196" d="M1196.093 848.084c0-61.774-50.082-111.896-111.896-111.896h-671.415c-61.755 0-111.876 50.121-111.876 111.896 0 61.814 50.121 111.916 111.876 111.916h671.395c61.834 0 111.916-50.102 111.916-111.916zM223.831 848.084c0-61.774-50.121-111.896-111.916-111.896s-111.916 50.121-111.916 111.896c0 61.814 50.102 111.916 111.916 111.916 61.794 0 111.916-50.102 111.916-111.916zM1196.093 449.558c0-61.774-50.082-111.916-111.896-111.916h-671.415c-61.755 0-111.876 50.141-111.876 111.916 0 61.814 50.121 111.916 111.876 111.916h671.395c61.834 0 111.916-50.102 111.916-111.916zM223.831 449.558c0-61.774-50.121-111.916-111.916-111.916s-111.916 50.141-111.916 111.916c0 61.814 50.102 111.916 111.916 111.916 61.794 0 111.916-50.102 111.916-111.916zM1196.093 47.896c0-61.774-50.082-111.896-111.896-111.896h-671.415c-61.755 0-111.876 50.121-111.876 111.896 0 61.834 50.121 111.896 111.876 111.896h671.395c61.834 0 111.916-50.082 111.916-111.896zM223.831 47.896c0-61.774-50.121-111.896-111.916-111.896s-111.916 50.121-111.916 111.896c0 61.834 50.102 111.896 111.916 111.896 61.794 0 111.916-50.082 111.916-111.896z" />
<glyph unicode="&#xe613;" glyph-name="questions" d="M511.979 960c-282.764 0-511.979-229.243-511.979-512.007 0-282.778 229.216-511.993 511.979-511.993 282.778 0 512.021 229.216 512.021 511.993-0.014 282.764-229.243 512.007-512.021 512.007zM567.575 121.226c0-10.361-8.466-18.855-18.841-18.855h-79.098c-10.375 0-18.841 8.494-18.841 18.855v71.241c0 10.361 8.48 18.855 18.841 18.855h79.098c10.375 0 18.841-8.494 18.841-18.855v-71.241zM719.726 534.45c-4.703-15.95-10.956-29.7-18.758-41.278-7.816-11.565-16.724-21.898-26.726-30.945-10.029-9.061-20.017-17.983-30.004-26.726-11.883-10.015-22.839-19.685-32.826-29.091-10.029-9.379-18.772-19.851-26.255-31.401-7.511-11.565-13.308-25.19-17.347-40.794-2.628-10.071-4.178-21.566-5.326-34.458-1.646-18.412-11.717-22.756-19.975-22.756h-61.807c-11.15 0-20.030 9.13-19.726 20.279 0 0 0.844 30.502 3.68 49.592 2.794 19.062 7.318 35.773 13.598 50.159 6.239 14.373 13.888 27.030 22.963 37.986 9.061 10.942 19.851 21.718 32.356 32.37 9.988 8.729 19.532 16.876 28.607 24.36 9.061 7.511 17.181 15.797 24.374 24.872 7.179 9.061 12.81 19.214 16.89 30.474 4.053 11.246 6.059 24.678 6.059 40.324 0 18.772-3.251 34.846-9.849 48.305-6.529 13.432-14.511 24.222-23.89 32.356-9.379 8.106-19.394 14.054-30.018 17.817-10.652 3.749-20.017 5.63-28.137 5.63-38.788 0-67.381-12.671-85.821-37.986-14.456-19.864-22.009-45.138-26.38-75.405-3.112-21.621-15.728-26.352-23.364-26.352h-64.546c-11.163 0-19.574 9.116-18.689 20.238 0 0 3.555 45.414 13.875 73.551 10.306 28.137 25.329 52.193 45.027 72.195 19.685 20.003 43.45 35.496 71.268 46.438 27.818 10.928 58.929 16.406 93.332 16.406 28.745 0 55.457-4.233 80.191-12.671 24.692-8.438 46.286-20.625 64.698-36.561 18.44-15.95 32.978-35.8 43.602-59.566 10.638-23.765 15.963-50.643 15.963-80.661 0-21.843-2.352-40.753-7.041-56.702z" />
<glyph unicode="&#xe614;" glyph-name="qa" horiz-adv-x="1378" d="M447.444 766.296c-61.693 0-104.745-49.266-104.745-109.627v-0.888c0-60.361 43.94-110.071 105.633-110.071 20.402 0 38.599 5.326 53.689 14.203l-38.599 32.844c-6.214 5.326-10.208 11.984-10.208 21.304 0 14.203 11.54 26.171 25.742 26.171 7.974 0 12.871-2.648 19.070-7.989l39.96-36.38c9.75 16.866 15.090 36.838 15.090 59.030v0.888c0 60.347-43.954 110.515-105.633 110.515zM895.761 640.35c0 159.396-200.51 319.65-447.888 319.65-247.379 0.015-447.873-160.239-447.873-319.65 0-150.386 178.481-304.899 406.375-318.392 18.804-29.766 49.709-70.57 91.681-99.552 76.28-52.816 191.559-67.211 198.646-60.968 11.599 12.413-45.611 19.913-109.065 83.323-25.668 25.683-40.285 57.654-47.845 82.021 203.276 27.34 355.97 174.457 355.97 313.569zM610.317 655.781c0-35.063-11.54-68.351-31.512-95.424l19.973-16.437c6.214-5.311 10.208-11.969 10.208-21.289 0-14.203-11.54-26.186-25.742-26.186-7.989 0-14.203 3.107-19.085 7.989l-22.192 19.973c-26.186-18.641-58.586-29.293-94.522-29.293-95.424 0-162 72.345-162 159.766v0.902c0 87.421 67.463 160.653 162.872 160.653 95.424 0 162-72.33 162-159.766v-0.888zM1027.906 278.625h80.083l-40.034 92.125zM1062.14 516.121c-174.649 0-316.202-120.827-316.202-233.353 0-98.235 107.793-209.756 251.329-229.048-5.341-17.206-15.667-39.768-33.791-57.891-44.783-44.783-85.201-50.094-76.99-58.867 5.001-4.409 86.37 5.74 140.237 43.037 29.648 20.476 51.47 49.295 64.755 70.289 160.86 9.528 286.88 126.3 286.88 232.466 0 112.542-141.539 233.368-316.217 233.368zM1161.367 186.5c-9.439 0-15.948 5.533-19.514 13.996l-18.567 42.652h-110.678l-19.203-43.954c-3.255-8.137-10.090-12.694-18.537-12.694-10.43 0-18.552 8.152-18.552 18.567 0 2.915 0.947 5.859 2.589 9.099l84.639 188.822c4.557 10.075 12.708 16.274 24.085 16.274h1.953c11.407 0 19.218-6.199 23.76-16.274l84.639-188.822c1.627-2.915 2.278-5.859 2.278-8.448-0.015-10.756-8.122-19.218-18.893-19.218z" />
<glyph unicode="&#xe615;" glyph-name="contact" horiz-adv-x="1446" d="M722.824 470.596l672.285 481.882c-9.229 3.7-19.231 7.522-29.803 7.522h-1284.986c-10.531 0-20.573-3.822-29.782-7.522l672.285-481.882zM722.824 371.877l-721.705 515.486c-0.508-3.619-1.118-7.278-1.118-11.039v-856.671c0-44.318 36.044-83.654 80.321-83.654h1284.986c44.297 0 80.321 39.357 80.321 83.675v856.65c0 3.761-0.59 7.4-1.118 11.018l-721.685-515.466z" />
<glyph unicode="&#xe616;" glyph-name="login" horiz-adv-x="1056" d="M352.949-53.723c7.6-6.883 16.060-10.325 24.569-10.325 8.174 0 16.299 3.155 23.661 9.369l418.768 437.935c15.344 13.049 24.903 37.857 24.903 64.72s-9.56 51.623-24.903 64.72l-418.72 437.983c-15.009 12.762-33.412 12.38-48.277-0.86-14.77-13.24-23.947-37.618-23.947-63.812v-240.19h-280.437c-26.815 0-48.564-33.22-48.564-74.136v-247.217c0-40.964 21.701-74.136 48.516-74.136h280.485v-240.143c0-26.337 9.177-50.715 23.947-63.907zM1055.547 119.118v681.28c0 79.394-64.672 144.019-144.019 144.019h-276.374c-31.643 0-57.311-25.668-57.311-57.359 0-31.643 25.668-57.311 57.311-57.311h276.374c16.204 0 29.349-13.145 29.349-29.349v-681.28c0-16.156-13.145-29.349-29.349-29.349h-276.374c-31.643 0-57.311-25.668-57.311-57.359 0-31.643 25.668-57.263 57.311-57.263h276.374c79.394 0 144.019 64.577 144.019 143.971z" />
<glyph unicode="&#xe617;" glyph-name="logout" horiz-adv-x="1285" d="M1285.219 858.103c0-56.278-45.605-101.897-101.897-101.897h-649.124c-56.278 0-101.897 45.62-101.897 101.897s45.62 101.897 101.897 101.897h649.124c56.278 0 101.897-45.62 101.897-101.897zM1285.219 37.897c0-56.293-45.605-101.897-101.897-101.897h-649.124c-56.278 0-101.897 45.605-101.897 101.897s45.62 101.897 101.897 101.897h649.124c56.278 0 101.897-45.605 101.897-101.897zM1183.322-61.479c-56.293 0-101.897 45.62-101.897 101.897v800.083c0 56.278 45.605 101.897 101.897 101.897s101.897-45.62 101.897-101.897v-800.083c0-56.278-45.605-101.897-101.897-101.897zM23.746 394.764l227.254-227.254c31.656-31.656 82.982-31.656 114.638 0s31.656 82.982 0 114.638l-88.719 88.719h393.686c44.79 0 81.080 36.291 81.080 81.050 0 44.774-36.291 81.050-81.080 81.050h-393.822l88.794 88.688c31.686 31.641 31.716 82.952 0.075 114.638-15.836 15.851-36.592 23.776-57.349 23.776-20.742 0-41.468-7.895-57.289-23.701l-227.239-226.952c-15.217-15.202-23.761-35.823-23.776-57.319-0.015-21.512 8.544-42.148 23.746-57.334z" />
<glyph unicode="&#xe618;" glyph-name="key" horiz-adv-x="2341" d="M2340.598 228.599v438.835c0 161.561-131.006 292.567-292.598 292.567h-438.835c-161.561 0-292.567-131.006-292.567-292.567h-1170.299l-146.299-146.299 146.299-292.567 146.268 146.268 146.299-146.268 146.299 146.268 146.268-146.268h585.165c0-161.593 131.006-292.598 292.567-292.598h438.866c161.561 0.032 292.567 131.006 292.567 292.63zM2048 155.417v585.165c0 40.414 32.704 73.118 73.15 73.118 40.414 0 73.118-32.704 73.118-73.118v-585.165c0-40.446-32.704-73.118-73.118-73.118s-73.15 32.672-73.15 73.118z" />
</font>
</defs>
</svg>
